<?xml version="1.0" encoding="iso-8859-1"?>
<!-- Generator: Adobe Illustrator 19.0.0, SVG Export Plug-In . SVG Version: 6.00 Build 0)  -->
<svg version="1.1" id="Layer_1" xmlns="http://www.w3.org/2000/svg" xmlns:xlink="http://www.w3.org/1999/xlink" x="0px" y="0px"
	 viewBox="0 0 512.003 512.003" style="enable-background:new 0 0 512.003 512.003;" xml:space="preserve">
<path style="fill:#73AFD6;" d="M455.344,45.862v134.784c0,12.606-10.219,22.827-22.827,22.827h-59.258V45.862H455.344z"/>
<g>
	<circle style="fill:#3E3B43;" cx="76.116" cy="469.576" r="42.427"/>
	<circle style="fill:#3E3B43;" cx="284.539" cy="469.576" r="42.427"/>
</g>
<path style="fill:#DFDFE2;" d="M309.501,427.146H42.422c-13.833,0-25.047-11.214-25.047-25.047s11.214-25.047,25.047-25.047h267.08
	c13.288,0,24.099-10.811,24.099-24.1V67.475C333.601,30.269,363.87,0,401.076,0h68.506c13.833,0,25.047,11.214,25.047,25.047
	s-11.214,25.047-25.047,25.047h-68.506c-9.584,0-17.38,7.797-17.38,17.38v285.477C383.696,393.862,350.412,427.146,309.501,427.146z
	"/>
<g>
	<circle style="fill:#D7D5D9;" cx="284.539" cy="469.576" r="16.719"/>
	<circle style="fill:#D7D5D9;" cx="76.116" cy="469.576" r="16.719"/>
</g>
<rect x="59.394" y="296.697" style="fill:#FFD578;" width="211.024" height="80.358"/>
<rect x="270.419" y="296.697" style="fill:#F7B737;" width="30.633" height="80.358"/>
<rect x="95.296" y="216.336" style="fill:#FFD578;" width="175.123" height="86.573"/>
<g>
	<rect x="270.419" y="216.336" style="fill:#F7B737;" width="30.633" height="86.573"/>
	<rect x="114.989" y="324.113" style="fill:#F7B737;" width="101.056" height="23.033"/>
	<rect x="136.29" y="244.17" style="fill:#F7B737;" width="79.755" height="23.033"/>
</g>
<path style="fill:#5D5D5D;" d="M469.581,0h-59.395v50.095h59.395c13.833,0,25.047-11.214,25.047-25.047S483.414,0,469.581,0z"/>
<rect x="59.394" y="360.996" style="fill:#F7B737;" width="241.655" height="16.051"/>
<g>
</g>
<g>
</g>
<g>
</g>
<g>
</g>
<g>
</g>
<g>
</g>
<g>
</g>
<g>
</g>
<g>
</g>
<g>
</g>
<g>
</g>
<g>
</g>
<g>
</g>
<g>
</g>
<g>
</g>
</svg>
