<?xml version="1.0" encoding="UTF-8" standalone="no"?>
<svg
   xmlns:dc="http://purl.org/dc/elements/1.1/"
   xmlns:cc="http://creativecommons.org/ns#"
   xmlns:rdf="http://www.w3.org/1999/02/22-rdf-syntax-ns#"
   xmlns:svg="http://www.w3.org/2000/svg"
   xmlns="http://www.w3.org/2000/svg"
   xmlns:sodipodi="http://sodipodi.sourceforge.net/DTD/sodipodi-0.dtd"
   xmlns:inkscape="http://www.inkscape.org/namespaces/inkscape"
   viewBox="0.3 0.6 44.45 42.5"
   id="svg2"
   sodipodi:version="0.32"
   inkscape:version="0.46"
   width="256"
   height="244.37454"
   sodipodi:docname="Hi-Life.svg"
   inkscape:output_extension="org.inkscape.output.svg.inkscape"
   version="1.0">
  <metadata
     id="metadata17">
    <rdf:RDF>
      <cc:Work
         rdf:about="">
        <dc:format>image/svg+xml</dc:format>
        <dc:type
           rdf:resource="http://purl.org/dc/dcmitype/StillImage" />
      </cc:Work>
    </rdf:RDF>
  </metadata>
  <defs
     id="defs15">
    <inkscape:perspective
       sodipodi:type="inkscape:persp3d"
       inkscape:vp_x="0 : 526.18109 : 1"
       inkscape:vp_y="0 : 1000 : 0"
       inkscape:vp_z="744.09448 : 526.18109 : 1"
       inkscape:persp3d-origin="372.04724 : 350.78739 : 1"
       id="perspective19" />
  </defs>
  <sodipodi:namedview
     inkscape:window-height="667"
     inkscape:window-width="766"
     inkscape:pageshadow="2"
     inkscape:pageopacity="0.0"
     guidetolerance="10.0"
     gridtolerance="10.0"
     objecttolerance="10.0"
     borderopacity="1.0"
     bordercolor="#666666"
     pagecolor="#ffffff"
     id="base"
     showgrid="false"
     inkscape:zoom="1.8905406"
     inkscape:cx="128"
     inkscape:cy="122.18727"
     inkscape:window-x="22"
     inkscape:window-y="0"
     inkscape:current-layer="svg2" />
  <g
     id="g3167"
     transform="matrix(1.0011778,0,0,1.0011778,-3.6264604e-2,-5.076318e-2)">
    <path
       sodipodi:nodetypes="ccccccccccccccscccccc"
       d="M 42.2,9.8 C 41.5,7.3333333 40,5.45 37.7,4.15 C 36.166667,3.3166667 34.716667,2.8 33.35,2.6 L 29.65,2.7 C 28.516667,2.9666667 27.5,3.3333333 26.6,3.8 L 24.35,5.35 L 22.9,6.7 L 22.4,7.3 L 21.9,6.7 L 20.45,5.35 L 18.2,3.8 C 17.3,3.3333333 16.283333,2.9666667 15.15,2.7 L 11.4,2.6 C 10.066667,2.8 8.6333333,3.3166667 7.1,4.15 C 4.8,5.45 3.3,7.3333333 2.6,9.8 C 1.9,12.266667 2.1166667,15.15 3.25,18.45 C 4.35,21.75 6.4666667,25.3 9.6,29.1 C 12.766667,32.9 17.033333,36.783333 22.4,40.75 C 27.766667,36.783333 32.033333,32.9 35.2,29.1 C 38.333333,25.3 40.466667,21.75 41.6,18.45 C 42.7,15.15 42.9,12.266667 42.2,9.8"
       id="path8"
       style="fill:#ff0000;fill-opacity:1;stroke:none;stroke-width:0.01;stroke-opacity:1" />
    <path
       sodipodi:nodetypes="ccccccccccccccccccccccccsccc"
       d="M 40.6,4.45 C 39.166667,3.0833333 37.383333,2.1333333 35.25,1.6 L 34.95,1.5 L 31.3,1.15 C 30,1.2166667 28.6,1.5666667 27.1,2.2 C 25.633333,2.8666667 24.083333,3.8833333 22.45,5.25 L 21.9,4.7 L 20.25,3.4 C 19.516667,2.9 18.65,2.45 17.65,2.05 C 16.616667,1.6166667 15.483333,1.3333333 14.25,1.2 L 10.2,1.5 C 8.7666667,1.8 7.25,2.4666667 5.65,3.5 C 3.75,4.7666667 2.4,6.4 1.6,8.4 C 0.8,10.433333 0.6,12.75 1,15.35 C 1.4333333,17.95 2.4833333,20.733333 4.15,23.7 C 5.85,26.7 8.2,29.8 11.2,33 C 14.266667,36.166667 18.016667,39.366667 22.45,42.6 L 23.9,41.55 L 27.5,38.7 L 32.3,34.3 L 37.3,28.8 C 38.933333,26.8 40.333333,24.7 41.5,22.5 L 41.65,22.2 L 43.2,18.4 C 43.7,17.033333 44.033333,15.616667 44.2,14.15 C 44.366667,12.683333 44.233333,11.233333 43.8,9.8 L 43.65,9.3 C 43.083333,7.4333333 42.066667,5.8166667 40.6,4.45"
       id="path10"
       style="fill:none;stroke:#ff0000;stroke-width:1;stroke-linecap:round;stroke-opacity:1" />
    <path
       d="M 15.9,15.95 C 15.6,15.95 15.35,16.05 15.15,16.25 C 14.95,16.45 14.85,16.716667 14.85,17.05 L 14.85,22.6 C 14.85,22.9 14.95,23.15 15.15,23.35 L 15.9,23.7 L 16.65,23.35 L 16.95,22.6 L 16.95,17.05 L 16.65,16.25 C 16.45,16.05 16.2,15.95 15.9,15.95 M 12.55,13.95 C 12.25,13.95 12,14.05 11.8,14.25 C 11.6,14.45 11.5,14.716667 11.5,15.05 L 11.5,17.85 L 9.85,17.85 L 9.85,15.05 L 9.55,14.25 C 9.35,14.05 9.1,13.95 8.8,13.95 C 8.5,13.95 8.25,14.05 8.05,14.25 C 7.85,14.45 7.75,14.716667 7.75,15.05 L 7.75,22.6 C 7.75,22.9 7.85,23.15 8.05,23.35 L 8.8,23.7 L 9.55,23.35 L 9.85,22.6 L 9.85,19.9 L 11.5,19.9 L 11.5,22.6 C 11.5,22.9 11.6,23.15 11.8,23.35 C 12,23.55 12.25,23.666667 12.55,23.7 L 13.3,23.35 L 13.6,22.6 L 13.6,15.05 L 13.3,14.25 C 13.1,14.05 12.85,13.95 12.55,13.95 M 20.9,15.05 L 20.9,22.6 C 20.9,22.9 21,23.15 21.2,23.35 L 21.95,23.7 L 22,23.7 L 22.05,23.7 L 24.2,23.7 C 24.5,23.666667 24.733333,23.566667 24.9,23.4 L 25.2,22.7 L 24.9,21.95 C 24.733333,21.783333 24.5,21.683333 24.2,21.65 L 23,21.65 L 23,15.05 L 22.7,14.25 L 21.95,13.95 C 21.65,13.95 21.4,14.05 21.2,14.25 C 21,14.45 20.9,14.716667 20.9,15.05 M 20.45,21.35 L 20.15,20.65 C 19.95,20.45 19.716667,20.35 19.45,20.35 L 18.4,20.35 C 18.133333,20.35 17.916667,20.45 17.75,20.65 C 17.55,20.85 17.45,21.083333 17.45,21.35 C 17.45,21.65 17.55,21.9 17.75,22.1 C 17.916667,22.266667 18.133333,22.366667 18.4,22.4 L 19.45,22.4 L 20.15,22.1 L 20.45,21.35 M 35.1,15.8 C 34.3,15.833333 33.666667,16.033333 33.2,16.4 C 32.733333,16.766667 32.383333,17.183333 32.15,17.65 C 31.916667,18.083333 31.783333,18.433333 31.75,18.7 L 30.95,18.7 L 30.95,14.75 L 32.1,14.75 C 32.366667,14.716667 32.583333,14.616667 32.75,14.45 L 33.05,13.7 L 32.75,13 C 32.583333,12.8 32.366667,12.7 32.1,12.7 L 29.9,12.7 C 29.6,12.7 29.35,12.8 29.15,13 C 28.983333,13.2 28.9,13.466667 28.9,13.8 L 28.9,18.7 L 27.75,18.7 L 27.75,17.1 L 27.45,16.3 C 27.25,16.1 27,15.983333 26.7,15.95 C 26.4,15.983333 26.15,16.1 25.95,16.3 C 25.75,16.5 25.65,16.766667 25.65,17.1 L 25.65,22.65 C 25.65,22.95 25.75,23.2 25.95,23.4 C 26.15,23.6 26.4,23.7 26.7,23.7 L 27.45,23.4 L 27.75,22.65 L 27.75,20.7 L 28.9,20.7 L 28.9,27.75 C 28.9,28.05 28.983333,28.3 29.15,28.5 L 29.9,28.85 L 30.65,28.5 L 30.95,27.75 L 30.95,20.7 L 31.75,20.7 C 31.916667,21.233333 32.133333,21.7 32.4,22.1 L 33.25,22.95 L 33.75,23.3 L 34.5,23.5 L 34.85,23.5 L 36.25,23.5 L 36.4,23.5 L 36.9,23.25 L 37.25,22.45 C 37.216667,22.116667 37.116667,21.883333 36.95,21.75 L 36.45,21.45 L 36.3,21.45 L 34.95,21.45 L 34.75,21.4 L 34.4,21.2 L 34.15,20.9 L 34.1,20.75 L 34.75,20.75 L 36.1,20.75 L 37.4,20.75 C 37.733333,20.716667 37.966667,20.55 38.1,20.25 L 38.3,19.3 L 38.3,18.85 L 38.2,18.3 L 37.75,17.25 L 36.8,16.25 C 36.366667,15.983333 35.8,15.833333 35.1,15.8 M 36.05,17.85 L 36.4,18.65 L 36.4,18.7 L 33.9,18.7 L 33.9,18.65 C 33.9,18.35 34.033333,18.083333 34.3,17.85 C 34.533333,17.65 34.816667,17.533333 35.15,17.5 C 35.516667,17.533333 35.816667,17.65 36.05,17.85 M 25.7,13.05 C 25.466667,13.316667 25.333333,13.633333 25.3,14 C 25.333333,14.4 25.466667,14.733333 25.7,15 C 25.966667,15.233333 26.283333,15.35 26.65,15.35 C 27.016667,15.35 27.333333,15.233333 27.6,15 C 27.833333,14.733333 27.95,14.4 27.95,14 C 27.95,13.633333 27.833333,13.316667 27.6,13.05 C 27.333333,12.783333 27.016667,12.65 26.65,12.65 C 26.283333,12.65 25.966667,12.783333 25.7,13.05 M 13.6,11.85 C 13.733333,12.416667 14,12.983333 14.4,13.55 C 14.833333,14.116667 15.333333,14.533333 15.9,14.8 L 17.4,13.55 C 17.833333,12.983333 18.1,12.416667 18.2,11.85 C 18.3,11.283333 18.15,10.833333 17.75,10.5 C 17.35,10.233333 17.016667,10.133333 16.75,10.2 C 16.483333,10.233333 16.283333,10.316667 16.15,10.45 L 15.9,10.75 L 15.65,10.45 C 15.516667,10.316667 15.316667,10.233333 15.05,10.2 C 14.783333,10.133333 14.45,10.233333 14.05,10.5 C 13.65,10.8 13.5,11.25 13.6,11.85"
       id="path12"
       style="fill:#ffffff;fill-opacity:1;stroke:none;stroke-width:0.01;stroke-opacity:1" />
  </g>
</svg>
