<?xml version="1.0" encoding="iso-8859-1"?>
<!-- Generator: Adobe Illustrator 19.0.0, SVG Export Plug-In . SVG Version: 6.00 Build 0)  -->
<svg version="1.1" id="Layer_1" xmlns="http://www.w3.org/2000/svg" xmlns:xlink="http://www.w3.org/1999/xlink" x="0px" y="0px"
	 viewBox="0 0 512.002 512.002" style="enable-background:new 0 0 512.002 512.002;" xml:space="preserve">
<path style="fill:#FF3F62;" d="M372.364,141.307c-7.602-1.092-15.372-1.669-23.273-1.669c-7.903,0-15.67,0.577-23.273,1.669
	c-21.879,3.142-42.367,10.643-60.551,21.602c-10.918,6.578-21.003,14.403-30.061,23.273c-24.987,24.458-42.152,56.868-47.354,93.092
	c-1.094,7.602-1.669,15.371-1.669,23.273c0,7.9,0.576,15.669,1.669,23.273c11.328,78.842,79.312,139.636,161.24,139.636
	c89.827,0,162.909-73.083,162.909-162.909C512,220.62,451.205,152.636,372.364,141.307z M398.46,319.003
	c9.087,9.087,9.087,23.824,0,32.912c-4.546,4.544-10.501,6.816-16.454,6.816c-5.958,0-11.916-2.271-16.457-6.816l-16.458-16.457
	v0.003l-16.454,16.454c-4.546,4.544-10.501,6.816-16.457,6.816c-5.955,0-11.913-2.271-16.454-6.816
	c-7.061-7.059-8.609-17.517-4.703-26.096c1.125-2.467,2.673-4.786,4.703-6.816l16.455-16.457l-16.457-16.457
	c-2.031-2.031-3.579-4.349-4.703-6.816c-3.907-8.581-2.358-19.039,4.703-26.098c7.058-7.058,17.512-8.608,26.093-4.703
	c2.467,1.123,4.788,2.675,6.819,4.704l16.454,16.454v0.002l16.457-16.455c2.028-2.031,4.349-3.581,6.816-4.703
	c8.578-3.908,19.037-2.357,26.096,4.701c9.087,9.089,9.087,23.824,0,32.914l-16.457,16.457L398.46,319.003z"/>
<path style="fill:#D6D5D8;" d="M186.182,186.181H46.545H23.273C10.422,186.181,0,175.761,0,162.908v139.638
	c0,12.851,10.422,23.273,23.273,23.273h162.909v-23.273c0-7.902,0.576-15.67,1.669-23.273c5.204-36.225,22.367-68.634,47.354-93.092
	H186.182z"/>
<path style="fill:#5286F9;" d="M349.091,46.546H186.182H23.273C10.422,46.546,0,56.966,0,69.819v93.089
	c0,12.853,10.422,23.273,23.273,23.273h23.273h139.636h49.025c9.058-8.87,19.143-16.694,30.061-23.273
	c18.185-10.958,38.673-18.458,60.551-21.602c7.602-1.092,15.369-1.669,23.273-1.669c7.9,0,15.67,0.577,23.273,1.669V69.819
	C372.364,56.966,361.942,46.546,349.091,46.546z"/>
<path style="fill:#830018;" d="M382.003,302.546l16.457-16.457c9.087-9.089,9.087-23.824,0-32.914
	c-7.061-7.058-17.518-8.609-26.096-4.701c-2.467,1.123-4.788,2.673-6.816,4.703l-16.457,16.455v-0.002l-16.454-16.454
	c-2.031-2.031-4.352-3.582-6.819-4.704c-8.581-3.905-19.037-2.355-26.093,4.703c-7.061,7.061-8.609,17.517-4.703,26.098
	c1.125,2.467,2.673,4.785,4.703,6.816l16.457,16.457l-16.457,16.457c-2.031,2.029-3.579,4.349-4.703,6.816
	c-3.907,8.58-2.358,19.039,4.703,26.096c4.543,4.544,10.501,6.816,16.454,6.816c5.958,0,11.913-2.271,16.457-6.816l16.455-16.454
	v-0.003l16.457,16.457c4.543,4.544,10.501,6.816,16.457,6.816c5.955,0,11.909-2.271,16.454-6.816c9.087-9.087,9.087-23.824,0-32.912
	L382.003,302.546z"/>
<path style="fill:#FF0C38;" d="M332.637,351.915c-4.546,4.544-10.501,6.816-16.457,6.816c-5.955,0-11.913-2.271-16.454-6.816
	c-7.061-7.059-8.609-17.517-4.703-26.096c1.125-2.467,2.673-4.786,4.703-6.816l16.455-16.457l-16.457-16.457
	c-2.031-2.031-3.579-4.349-4.703-6.816c-3.907-8.581-2.358-19.037,4.703-26.098c7.058-7.058,17.512-8.608,26.093-4.703
	c2.467,1.123,4.788,2.675,6.819,4.704l16.454,16.454V139.637c-7.903,0-15.67,0.577-23.273,1.669
	c-21.879,3.142-42.367,10.643-60.551,21.602c-10.918,6.578-21.003,14.403-30.061,23.273c-24.987,24.458-42.152,56.868-47.354,93.092
	c-1.094,7.602-1.669,15.371-1.669,23.273c0,7.9,0.576,15.669,1.669,23.273c11.328,78.842,79.312,139.636,161.24,139.636V335.462
	L332.637,351.915z"/>
<path style="fill:#D6D5D8;" d="M186.182,325.819h1.669c-1.094-7.604-1.669-15.372-1.669-23.273V325.819z"/>
<path style="fill:#C3C3C7;" d="M186.182,186.181H46.545H23.273C10.422,186.181,0,175.761,0,162.908v139.638
	c0,12.851,10.422,23.273,23.273,23.273h162.909v-23.273V186.181z"/>
<path style="fill:#3D6DEB;" d="M23.273,186.181h23.273h139.636V46.546H23.273C10.422,46.546,0,56.966,0,69.819v93.089
	C0,175.761,10.422,186.181,23.273,186.181z"/>
<g>
</g>
<g>
</g>
<g>
</g>
<g>
</g>
<g>
</g>
<g>
</g>
<g>
</g>
<g>
</g>
<g>
</g>
<g>
</g>
<g>
</g>
<g>
</g>
<g>
</g>
<g>
</g>
<g>
</g>
</svg>
